<svg xmlns="http://www.w3.org/2000/svg" viewBox="0 0 647.7 565.8"><defs><style>.cls-1{fill:#e5e4dc;}</style></defs><g id="Ebene_2" data-name="Ebene 2"><g id="Ebene_1-2" data-name="Ebene 1"><path class="cls-1" d="M44.1,222.2a6.7,6.7,0,0,0,6.7-6.6V170.9a6.7,6.7,0,0,0-6.7-6.7H16.6a6.7,6.7,0,0,0-6.7,6.7v44.6a6.7,6.7,0,0,0,6.7,6.7H26.9v5.2H9.9v6.8H50.8v-6.8h-17v-5.2ZM30.3,168.4a5.1,5.1,0,1,1-5.1,5.1,5.1,5.1,0,0,1,5.1-5.1ZM16.7,185.2a1.8,1.8,0,0,1,1.7-1.7H42.3a1.8,1.8,0,0,1,1.7,1.7v10.2a1.7,1.7,0,0,1-1.7,1.7H18.4a1.7,1.7,0,0,1-1.7-1.7Zm0,27.3V202.2a1.8,1.8,0,0,1,1.7-1.7H42.3a1.8,1.8,0,0,1,1.7,1.7v10.3a1.8,1.8,0,0,1-1.7,1.7H18.4a1.8,1.8,0,0,1-1.7-1.7ZM130.3,90.8h.3l-.8,7.7H139v4.2H105.1V98.5h9.2l-.8-7.7ZM149.1,55V93.8H95V55Zm-5,4.8H100V89h44.1ZM128.3,35.2V51.6h4.9V40h44.2V70.7H152.5V82.9h19.7V78.7H163l.5-3.1h18.9V35.2Zm386.1,7.1c6.6,0,11.1,3.8,13.7,7l1.7,2.1,2.5-1.1a15.4,15.4,0,0,1,5.5-1.1,16,16,0,0,1,11.9,5.2,15.4,15.4,0,0,1,3.8,12.3l-.4,3.8,3.7.2H558c6.1,0,11,5.7,11,12.7s-4.9,12.8-11,12.8H498.7c-6.9,0-12.6-6.6-12.6-14.7,0-6.1,3.3-11.7,8.3-13.8l2.6-1.1-.5-2.8c-1.1-6,.1-11.4,3.4-15.4s8.4-6.2,14.5-6.2m-.6-5c-15.4,0-25.3,11.8-22.4,27-6.4,2.7-11,9.7-11,17.9,0,10.6,7.7,19.1,17,19.1h62c8.4,0,15.2-7.6,15.2-17.1s-6.8-17.1-15.2-17.1h-1a20,20,0,0,0-20.1-22.5A18,18,0,0,0,531,46c-3.8-4.7-9.5-8.7-17.2-8.7Zm9.7,20.5s-9,6.7-16.7,11.9V85a3.4,3.4,0,0,0,3.4,3.4h10.2V74.8h6.8V88.4h10.1a3.5,3.5,0,0,0,3.4-3.5V69.7L523.5,57.8Zm65.8,118.1c-.3,6.6,5,18.9,18.6,34s25.3,21.8,31.9,22.1,7.9-9.6,7.9-9.6a3.3,3.3,0,0,0-1.3-3.1L636,211.6a3.5,3.5,0,0,0-3.3-.2l-3.5,2a3.3,3.3,0,0,1-3.3-.2,91.8,91.8,0,0,1-10.9-9.6,89.8,89.8,0,0,1-8.5-11.9,3.5,3.5,0,0,1,.2-3.3l2.4-3.3a3.3,3.3,0,0,0,.1-3.3l-6.5-11.1a3.8,3.8,0,0,0-3-1.7s-10,.3-10.4,6.9Zm54.1,185.7A1.4,1.4,0,0,1,642,363H599.8a1.4,1.4,0,0,1-1.4-1.4s-1.2-10.2,0-13.3,4.1-4.9,4.9-4.9h3.1v12.8a1.4,1.4,0,0,0,1.4,1.4h26a1.4,1.4,0,0,0,1.4-1.4V343.4h3.3c.7,0,4.3,3.2,4.9,4.9s0,13.3,0,13.3Zm-10.8-60.7v51.3a2.9,2.9,0,0,1-2.9,2.9H612.1a2.9,2.9,0,0,1-2.9-2.9V300.9a2.9,2.9,0,0,1,2.9-2.9h17.6a2.9,2.9,0,0,1,2.9,2.9Zm-19.3,30.2h15.4V304.6H613.3v26.5Zm4.1,16.2a1.1,1.1,0,0,0-1.1-1.1h-2.4a1.1,1.1,0,0,0-1.1,1.1v2.3a1.1,1.1,0,0,0,1.1,1.2h2.4a1.1,1.1,0,0,0,1.1-1.2v-2.3Zm0-5.8a1.1,1.1,0,0,0-1.1-1.1h-2.4a1.1,1.1,0,0,0-1.1,1.1v2.3a1.1,1.1,0,0,0,1.1,1.2h2.4a1.1,1.1,0,0,0,1.1-1.2v-2.3Zm0-5.8a1.1,1.1,0,0,0-1.1-1.1h-2.4a1.1,1.1,0,0,0-1.1,1.1V338a1.1,1.1,0,0,0,1.1,1.2h2.4a1.1,1.1,0,0,0,1.1-1.2v-2.3Zm5.8,11.6a1.1,1.1,0,0,0-1.2-1.1h-2.3a1.1,1.1,0,0,0-1.1,1.1v2.3a1.1,1.1,0,0,0,1.1,1.2H622a1.2,1.2,0,0,0,1.2-1.2v-2.3Zm0-5.8a1.1,1.1,0,0,0-1.2-1.1h-2.3a1.1,1.1,0,0,0-1.1,1.1v2.3a1.1,1.1,0,0,0,1.1,1.2H622a1.2,1.2,0,0,0,1.2-1.2Zm0-5.8a1.1,1.1,0,0,0-1.2-1.1h-2.3a1.1,1.1,0,0,0-1.1,1.1V338a1.1,1.1,0,0,0,1.1,1.2H622a1.2,1.2,0,0,0,1.2-1.2Zm5.8,11.6a1.1,1.1,0,0,0-1.2-1.1h-2.3a1.1,1.1,0,0,0-1.1,1.1v2.3a1.1,1.1,0,0,0,1.1,1.2h2.4a1.1,1.1,0,0,0,1.1-1.2v-2.3Zm0-5.8a1.1,1.1,0,0,0-1.2-1.1h-2.3a1.1,1.1,0,0,0-1.1,1.1v2.3a1.1,1.1,0,0,0,1.1,1.2h2.4a1.1,1.1,0,0,0,1.1-1.2v-2.3Zm0-5.8a1.1,1.1,0,0,0-1.2-1.1h-2.3a1.1,1.1,0,0,0-1.1,1.1V338a1.1,1.1,0,0,0,1.1,1.2h2.4A1.1,1.1,0,0,0,629,338v-2.3ZM527.8,518a31.1,31.1,0,0,1-16.3-4.6l-2.4-1.5,2.9-4.8,2.4,1.4a25.8,25.8,0,0,0,26.8,0l2.3-1.4,3.1,4.6-2.7,1.7a29.9,29.9,0,0,1-16.1,4.6Zm-24.6-12.3-1.7-2.2a31.1,31.1,0,0,1-.2-32.9l1.5-2.3,4.9,2.9-1.5,2.4a25.4,25.4,0,0,0-3.8,13.4,25.7,25.7,0,0,0,3.8,13.4l1.4,2.3-4.4,3Zm49.6-.1-4.8-2.9,1.4-2.5a25.1,25.1,0,0,0,3.8-13.3,25.7,25.7,0,0,0-3.8-13.4l4.8-3-2.5,1.5,2.5-1.5a31.7,31.7,0,0,1,4.6,16.4,30.2,30.2,0,0,1-4.6,16.3l-1.4,2.4Zm-41-38.8-2.7-4.9,2.4-1.3a31.5,31.5,0,0,1,32.6-.1l2.4,1.5-3,4.8-2.4-1.5a26,26,0,0,0-26.5,0l-.3.2-2.5,1.3Zm16,7.8A12.4,12.4,0,1,0,540.2,487a12.4,12.4,0,0,0-12.4-12.4ZM174.1,502.4,152,491.8a20.2,20.2,0,0,0,.6-3.4H177v-3.3H152.8a26,26,0,0,0-8.1-18.6,26.2,26.2,0,1,0,.9,37.1l.2-.2,22.1,10.5a6.5,6.5,0,0,0,8.9-2.6,6.6,6.6,0,0,0-2.6-8.9Zm-61.8-30.5a19.7,19.7,0,0,1,14.3-6.1,19.2,19.2,0,0,1,13.5,5.4,19.5,19.5,0,0,1,6.1,13.9h-8.3l-6.1,6.5-7.2-20-9.9,13.2H107a20.2,20.2,0,0,1,5.3-12.9Zm14.3,33.3a19.7,19.7,0,0,1-13.6-5.5,19.3,19.3,0,0,1-5.8-11.6h9.1l7.3-9.6,7,19.3,8.7-9.4H146a20,20,0,0,1-5.2,10.7,19.5,19.5,0,0,1-14.2,6.1ZM331.3,73.8c-4.2,4.3-10.8,4.3-14.6,0s-4.3-10.8,0-14.6a10.3,10.3,0,0,1,14.6,14.6ZM369,23a2.9,2.9,0,0,0,0-4.2h0a63.7,63.7,0,0,0-90.4,0c-.8,1.1-1.2,3,0,4.2h0a2.9,2.9,0,0,0,4.2,0h0a57.9,57.9,0,0,1,82,0A2.9,2.9,0,0,0,369,23Zm-9.2,9.2a2.9,2.9,0,0,0,0-4.2h0A48.4,48.4,0,0,0,324,13.4h0A51.7,51.7,0,0,0,288.2,28a3,3,0,1,0,4.2,4.2h0a44.6,44.6,0,0,1,31.6-13h0a44.6,44.6,0,0,1,31.6,13c.3.8,1.1.8,1.9.8A5.3,5.3,0,0,0,359.8,32.2Zm-9.6,9.3a3.2,3.2,0,0,0,0-4.3h0a37.6,37.6,0,0,0-52.4,0,3.2,3.2,0,0,0,0,4.3h0a3.1,3.1,0,0,0,4.2,0h0a31.2,31.2,0,0,1,44.3,0c.8,1.1,2.7,1.1,3.9,0Zm-9.3,9.6a2.9,2.9,0,0,0,0-4.2h0a23.3,23.3,0,0,0-16.9-7h0a25.2,25.2,0,0,0-16.9,7,3,3,0,0,0,4.2,4.2,17.7,17.7,0,0,1,12.7-5h0a18.1,18.1,0,0,1,12.7,5.4,3,3,0,0,0,1.9.8A3.1,3.1,0,0,0,340.9,51.1Zm-17,425.4a44.7,44.7,0,1,0,44.6,44.7,44.7,44.7,0,0,0-44.6-44.7Zm24.6,26.1a1.8,1.8,0,0,0,.9-.6,2.1,2.1,0,0,0,1-.4l.5.2h.6v.8l.2.3h-.6l-.6.3.2.2h-.5c.8.6.6,1.2,1.7,1.5s.4.8.6,1.1l-.2.5.4.8.3.2a10.9,10.9,0,0,1,.5,1.7c-2.4.5-1.4-.2-3.2-.6l-.2-.7c.2-.5.1-1.1.3-1.5s-1.8-1.5-1.8-2.6l-.6-.5a1.6,1.6,0,0,0,.5-.8Zm-10.4,11.2c-.9,0-1.5-.8-2.5-.4s-.2-.4-1.2-.5a1.2,1.2,0,0,0-2.2.2c.3.3.1.7,0,1l-.5.2c-.8-.5-2.3-.6-2.4-1.6l-2.5-.6-.3-.5h-.4l-.2-.3.7-.5c-.1-.5-.5-1.3,0-1.7a3.2,3.2,0,0,1-.9-.3,1.8,1.8,0,0,1-2,.2l-.6.4c-1.7-.6-3.5.3-4.8,1.3l-.5-.3c-.6.1-1.1.3-1.5-.3H316a6.4,6.4,0,0,0-.8,1.4c-1.1.5-2.5,1.4-2,2.9a2.9,2.9,0,0,1-2.1,1.5l-.6,1c-.7.2-1.5,2.7-1.9,3.4s1.2,3.3-.8,5.7l.3.6c-.2,1.7,1.5,2.3,2.2,3.4s1.9,3.8,3.9,3.9.6-1.1,3.8-.4c3.8-1.9,2.7-2,5.5.4.5,0,.9-.3,1.4-.3a1.8,1.8,0,0,1,.8,1.1c-1.1,6.2,2.4,5.1,2.4,9l-.2.3c0,1,1.1,1.3.2,2.6s-1.3,2.6-1.1,3.2l3.2,9.3a15.4,15.4,0,0,0,.8,1.9,41.7,41.7,0,0,1-7.1.7,41,41,0,0,1-26-9.4,17.9,17.9,0,0,0,.6-4.9c.8-1.3,1.6-2.5,2.5-3.7s0-2.4-.5-2.6-3.8-2.3-5.8-2a2.9,2.9,0,0,0-2.6-1.4c-.6,1-1.7,1.5-2.2.1s1.3-1.3.4-2.4-1.7-2.6-3.8-2.8c-.4,0-1.4-1.2-2-1.7a41.2,41.2,0,0,1,2.4-26.7l4.3-1.7.6.2-1.8.9v.4c.6.1,5.7-2.2,3.9-2.2s-3.2,1.4-1.6-1.4c-1.5-.7-1.5-.1-2.9,0,1.3-2,9.2-.6,9.2-3.4s-2.2-1.1-2.1-2.5a5.6,5.6,0,0,0-1-2.6,42.2,42.2,0,0,1,10.1-7.2l.8.6c0,1.2-3.1,1.6-2.3,2.6-.9,1.9,1.1,4.4,3.1,4.4l.5-.4a6.7,6.7,0,0,1,5.1-3.8c1-.2,1.5-1.1,2.4-1.3s2.9-.3,4.1-.9.4-.2.3-.4-.4-.3-.6-.5,1.1,1.6,1.9.2a.9.9,0,0,0-.5-1.1c-.1,0-.6,0-.3-.2s.7.6,1,.2l1.4-1.8c-.1-.5.1-1.1.7-1s-.8-.4-.4-.8h1a40.2,40.2,0,0,1,21.6,6.3l-.9.4h-1.2l.6-.2a5.9,5.9,0,0,0-1.9-.5l.6.5v.5l.5.5v.2l-.9-.3-1.2.7.4.6-1.6-.4-.2.2.3.3c.1,0,.8.2.5.4a3.1,3.1,0,0,1-1.8-.7,1.7,1.7,0,0,0-1.3-1.4c1.3.4,3,1.2,4.2.2l-.4-.7-4.4-1.3a1.2,1.2,0,0,0-.8.1h-.2c.9-.9-2.4-.8-2.8-.8a17.5,17.5,0,0,0-5.3,1.8h.7v.5c-.4.6-.6.1-1.2,1.4s-1.3,1.3-1.8,1-2.5,1.2-2,2.2,0,.8.3.8c-.4,1.8,2.3.4,2.8-.2a23.9,23.9,0,0,0,1.2,2.2.7.7,0,0,0,.3.9l.6-.2v-.3l1.2-.2.2-.8-.2-.7a1.8,1.8,0,0,0,1.2-1.2l-.6-.3-.3-.9c.6-1.1,1.2-1,1.9-1.8V489l.3-.5.9-.2c2.3-.5-1,1.8-1,1.8s.2.7.2,1.1,3.3.7,4.3,1.1l-1.2.4c-1.5-.3-1.4.1-2.7.5l.2.4h1.1c.2,1.3-.4,1.1-1.1.3s-.7,1.1-.6,1.7a8,8,0,0,1-1.2.8c.1-.8-2.1.1-2.4.2l-.6-.3-1.2.4-.7-.7.2-.8.4-.4-.4-.2.2-.5-.4-.2-.2.4c-1.3.2-.9,1.6-.4,2.4-2.3.5-2.4.9-4,2.1a2.4,2.4,0,0,1-1.6,1.2l-.5-.3H319v.7a2.4,2.4,0,0,1-1.2-.1c-.4.1-.8.1-.7.6a2.4,2.4,0,0,1,2,1.3c1.3,2.7-2.4,2.1-3.5,2.1l-.3-.2-1.2.5c.7.1,0,2.8-.4,3.1s.3,1.3.3,1.5c1.9-.6,1.5.8,2.1.8s2.1-.2,3.1-1.3a1.1,1.1,0,0,1,.5-.9v-.7c.9-1,.7-1.1,2-1.7.4-2.3.9-.3,2.4-1.1s3.4,2.3,5.4,2.6v.9l-.3.4.5.2c.2-.3.2-.8.6-.9l-.4-.5.4-.5c.2.2.5.2.6.5l.2-.3c-.2-.5-1.1-.8-1.6-1v-.3a1.9,1.9,0,0,1-1.3-.7c.1-.5-.6-.7-.9-1v-.8c.3-.4.8-.1,1,.3s.4.7,1.1,1,1.6.6,2.1,1.4v1c.4.2.9.7.8,1.2a.5.5,0,0,1,.2.7h0l.4.2.2.6h.9l-.3-.7.5.2h0l-.2-.4h.1l.4.2v-.7l-.4-.3-.2-.4h-.3l-.2-.5a1,1,0,0,1,.9.2l.2-.5.4.2h.3l.3.3a2.5,2.5,0,0,1,1.8-.6l.2-.2c-1.5-.3-.7-2.6,0-2.9s1-1.5,1.6-.6a12.7,12.7,0,0,0,3.8-1.1l.3.2c-.3.2-.7,1.5-2.2,1.4s-.1-1-1.8,0a.5.5,0,0,1,.7.6h.3c1.2-.7,4.9.3,4.9,1.9s-1.6.6-2.2.6-1.5-.9-2.8-.8-1,.9-2.3.7c.4.1.2.4.1.4s-1.3.1-1.9.4-.7.3-.4.5l.5.6c-.7-.1.7,1.2.9,1.4s.7.5,1.2.5l.6-.5,1.7.6c.5,0,.2-.9,1.2-.4l.3-.3.2.2-.2.3c.3,3.3.1,3.5-2.8,3.5-.5,0-.8.6-1.3.6ZM352,550.4l.4-.4v-.5a2.6,2.6,0,0,0-.5-2.9l-.8.8c-1.2,2.2-.7,1.1-2.4,2.3s-.6.5-.2,2.4-.5,1.2-.1,1.3a37.7,37.7,0,0,1-8,4.8,2.8,2.8,0,0,0,.4-1.2c.1-.8,3-1,1.6-3a1.7,1.7,0,0,0-.3-1.2c.5-2,3.7-1.6,4.2-4.7s-1.2-3.9-.9-5.6c-1.3-2.9,7.1-8.6,7.9-13.4.3-2.3-4.4,2-5.4-1v-.4a11.8,11.8,0,0,1-4.2-4.9,11.1,11.1,0,0,0-.2-1.7c-.7-2.3-2.3-4.3-3.4-6.4.3-.4,1,1.2,1.1,1.4h.4v-.9l3.4,6.5c.6,1.2,1.8,2,2.4,3.3s.1,1.7.5,2.4l.8.5,4.8-2.1c.4-.1.3-.5.5-.8s1.1-.2,1.5-.5.2-.6,1-.8l.8-.8a1.4,1.4,0,0,1,0-.9c.4,0,1.1-.9,1.1-.9s-2-1.6-2.7-3.3a6.8,6.8,0,0,1-2.1,1.7c-.9-.3-4.2-4.3-2.7-5.1l.7.2c1,1.3,2.4,3.7,4.3,2.3h.2v.4l.7.7a25.3,25.3,0,0,0,5.5.1c.4,0,.6.8.8,1a4.9,4.9,0,0,1,1,.8c0,.5.1.9.1,1.4A40.5,40.5,0,0,1,352,550.5Zm-24.1-42h0Zm-1.5-13,.4.4h-.1c-.4.7.6-.3.6-.4l-.5-.5-.4.4Zm-11.8,3.1,1.9-.7.3-.9v-.4l.5-.2-1-.6a5.4,5.4,0,0,1-1.6,1l.2.5-.6.9.4.4Zm2.9-2.7.3.3.5-.2h0l.3.6-.3.5h-.4a2,2,0,0,1-.6,1.3h1.2c-.3.7-1.2.6-1.7,1h.2l.7-.3h.2c.5-.4,2.3-.4,3-.7l-.3-.3.6-.8-.4-.2h-.4a1.1,1.1,0,0,0-.7-1.3l-.3-.7-.6-.5.6-.9h-1l.4-.7h-.9l-.9.9v.9a.4.4,0,0,1,.4.7Zm6.4-19.3a44.7,44.7,0,1,0,44.6,44.7,44.7,44.7,0,0,0-44.6-44.7Zm24.6,26.1a1.8,1.8,0,0,0,.9-.6,2.1,2.1,0,0,0,1-.4l.5.2h.6v.8l.2.3h-.6l-.6.3.2.2h-.5c.8.6.6,1.2,1.7,1.5s.4.8.6,1.1l-.2.5.4.8.3.2a10.9,10.9,0,0,1,.5,1.7c-2.4.5-1.4-.2-3.2-.6l-.2-.7c.2-.5.1-1.1.3-1.5s-1.8-1.5-1.8-2.6l-.6-.5a1.6,1.6,0,0,0,.5-.8Zm-10.4,11.2c-.9,0-1.5-.8-2.5-.4s-.2-.4-1.2-.5a1.2,1.2,0,0,0-2.2.2c.3.3.1.7,0,1l-.5.2c-.8-.5-2.3-.6-2.4-1.6l-2.5-.6-.3-.5h-.4l-.2-.3.7-.5c-.1-.5-.5-1.3,0-1.7a3.2,3.2,0,0,1-.9-.3,1.8,1.8,0,0,1-2,.2l-.6.4c-1.7-.6-3.5.3-4.8,1.3l-.5-.3c-.6.1-1.1.3-1.5-.3H316a6.4,6.4,0,0,0-.8,1.4c-1.1.5-2.5,1.4-2,2.9a2.9,2.9,0,0,1-2.1,1.5l-.6,1c-.7.2-1.5,2.7-1.9,3.4s1.2,3.3-.8,5.7l.3.6c-.2,1.7,1.5,2.3,2.2,3.4s1.9,3.8,3.9,3.9.6-1.1,3.8-.4c3.8-1.9,2.7-2,5.5.4.5,0,.9-.3,1.4-.3a1.8,1.8,0,0,1,.8,1.1c-1.1,6.2,2.4,5.1,2.4,9l-.2.3c0,1,1.1,1.3.2,2.6s-1.3,2.6-1.1,3.2l3.2,9.3a15.4,15.4,0,0,0,.8,1.9,41.7,41.7,0,0,1-7.1.7,41,41,0,0,1-26-9.4,17.9,17.9,0,0,0,.6-4.9c.8-1.3,1.6-2.5,2.5-3.7s0-2.4-.5-2.6-3.8-2.3-5.8-2a2.9,2.9,0,0,0-2.6-1.4c-.6,1-1.7,1.5-2.2.1s1.3-1.3.4-2.4-1.7-2.6-3.8-2.8c-.4,0-1.4-1.2-2-1.7a41.2,41.2,0,0,1,2.4-26.7l4.3-1.7.6.2-1.8.9v.4c.6.1,5.7-2.2,3.9-2.2s-3.2,1.4-1.6-1.4c-1.5-.7-1.5-.1-2.9,0,1.3-2,9.2-.6,9.2-3.4s-2.2-1.1-2.1-2.5a5.6,5.6,0,0,0-1-2.6,42.2,42.2,0,0,1,10.1-7.2l.8.6c0,1.2-3.1,1.6-2.3,2.6-.9,1.9,1.1,4.4,3.1,4.4l.5-.4a6.7,6.7,0,0,1,5.1-3.8c1-.2,1.5-1.1,2.4-1.3s2.9-.3,4.1-.9.4-.2.3-.4-.4-.3-.6-.5,1.1,1.6,1.9.2a.9.9,0,0,0-.5-1.1c-.1,0-.6,0-.3-.2s.7.6,1,.2l1.4-1.8c-.1-.5.1-1.1.7-1s-.8-.4-.4-.8h1a40.2,40.2,0,0,1,21.6,6.3l-.9.4h-1.2l.6-.2a5.9,5.9,0,0,0-1.9-.5l.6.5v.5l.5.5v.2l-.9-.3-1.2.7.4.6-1.6-.4-.2.2.3.3c.1,0,.8.2.5.4a3.1,3.1,0,0,1-1.8-.7,1.7,1.7,0,0,0-1.3-1.4c1.3.4,3,1.2,4.2.2l-.4-.7-4.4-1.3a1.2,1.2,0,0,0-.8.1h-.2c.9-.9-2.4-.8-2.8-.8a17.5,17.5,0,0,0-5.3,1.8h.7v.5c-.4.6-.6.1-1.2,1.4s-1.3,1.3-1.8,1-2.5,1.2-2,2.2,0,.8.3.8c-.4,1.8,2.3.4,2.8-.2a23.9,23.9,0,0,0,1.2,2.2.7.7,0,0,0,.3.9l.6-.2v-.3l1.2-.2.2-.8-.2-.7a1.8,1.8,0,0,0,1.2-1.2l-.6-.3-.3-.9c.6-1.1,1.2-1,1.9-1.8V489l.3-.5.9-.2c2.3-.5-1,1.8-1,1.8s.2.7.2,1.1,3.3.7,4.3,1.1l-1.2.4c-1.5-.3-1.4.1-2.7.5l.2.4h1.1c.2,1.3-.4,1.1-1.1.3s-.7,1.1-.6,1.7a8,8,0,0,1-1.2.8c.1-.8-2.1.1-2.4.2l-.6-.3-1.2.4-.7-.7.2-.8.4-.4-.4-.2.2-.5-.4-.2-.2.4c-1.3.2-.9,1.6-.4,2.4-2.3.5-2.4.9-4,2.1a2.4,2.4,0,0,1-1.6,1.2l-.5-.3H319v.7a2.4,2.4,0,0,1-1.2-.1c-.4.1-.8.1-.7.6a2.4,2.4,0,0,1,2,1.3c1.3,2.7-2.4,2.1-3.5,2.1l-.3-.2-1.2.5c.7.1,0,2.8-.4,3.1s.3,1.3.3,1.5c1.9-.6,1.5.8,2.1.8s2.1-.2,3.1-1.3a1.1,1.1,0,0,1,.5-.9v-.7c.9-1,.7-1.1,2-1.7.4-2.3.9-.3,2.4-1.1s3.4,2.3,5.4,2.6v.9l-.3.4.5.2c.2-.3.2-.8.6-.9l-.4-.5.4-.5c.2.2.5.2.6.5l.2-.3c-.2-.5-1.1-.8-1.6-1v-.3a1.9,1.9,0,0,1-1.3-.7c.1-.5-.6-.7-.9-1v-.8c.3-.4.8-.1,1,.3s.4.7,1.1,1,1.6.6,2.1,1.4v1c.4.2.9.7.8,1.2a.5.5,0,0,1,.2.7h0l.4.2.2.6h.9l-.3-.7.5.2h0l-.2-.4h.1l.4.2v-.7l-.4-.3-.2-.4h-.3l-.2-.5a1,1,0,0,1,.9.2l.2-.5.4.2h.3l.3.3a2.5,2.5,0,0,1,1.8-.6l.2-.2c-1.5-.3-.7-2.6,0-2.9s1-1.5,1.6-.6a12.7,12.7,0,0,0,3.8-1.1l.3.2c-.3.2-.7,1.5-2.2,1.4s-.1-1-1.8,0a.5.5,0,0,1,.7.6h.3c1.2-.7,4.9.3,4.9,1.9s-1.6.6-2.2.6-1.5-.9-2.8-.8-1,.9-2.3.7c.4.1.2.4.1.4s-1.3.1-1.9.4-.7.3-.4.5l.5.6c-.7-.1.7,1.2.9,1.4s.7.5,1.2.5l.6-.5,1.7.6c.5,0,.2-.9,1.2-.4l.3-.3.2.2-.2.3c.3,3.3.1,3.5-2.8,3.5-.5,0-.8.6-1.3.6ZM352,550.4l.4-.4v-.5a2.6,2.6,0,0,0-.5-2.9l-.8.8c-1.2,2.2-.7,1.1-2.4,2.3s-.6.5-.2,2.4-.5,1.2-.1,1.3a37.7,37.7,0,0,1-8,4.8,2.8,2.8,0,0,0,.4-1.2c.1-.8,3-1,1.6-3a1.7,1.7,0,0,0-.3-1.2c.5-2,3.7-1.6,4.2-4.7s-1.2-3.9-.9-5.6c-1.3-2.9,7.1-8.6,7.9-13.4.3-2.3-4.4,2-5.4-1v-.4a11.8,11.8,0,0,1-4.2-4.9,11.1,11.1,0,0,0-.2-1.7c-.7-2.3-2.3-4.3-3.4-6.4.3-.4,1,1.2,1.1,1.4h.4v-.9l3.4,6.5c.6,1.2,1.8,2,2.4,3.3s.1,1.7.5,2.4l.8.5,4.8-2.1c.4-.1.3-.5.5-.8s1.1-.2,1.5-.5.2-.6,1-.8l.8-.8a1.4,1.4,0,0,1,0-.9c.4,0,1.1-.9,1.1-.9s-2-1.6-2.7-3.3a6.8,6.8,0,0,1-2.1,1.7c-.9-.3-4.2-4.3-2.7-5.1l.7.2c1,1.3,2.4,3.7,4.3,2.3h.2v.4l.7.7a25.3,25.3,0,0,0,5.5.1c.4,0,.6.8.8,1a4.9,4.9,0,0,1,1,.8c0,.5.1.9.1,1.4A40.5,40.5,0,0,1,352,550.5Zm-24.1-42h0Zm-1.5-13,.4.4h-.1c-.4.7.6-.3.6-.4l-.5-.5-.4.4Zm-11.8,3.1,1.9-.7.3-.9v-.4l.5-.2-1-.6a5.4,5.4,0,0,1-1.6,1l.2.5-.6.9.4.4Zm2.9-2.7.3.3.5-.2h0l.3.6-.3.5h-.4a2,2,0,0,1-.6,1.3h1.2c-.3.7-1.2.6-1.7,1h.2l.7-.3h.2c.5-.4,2.3-.4,3-.7l-.3-.3.6-.8-.4-.2h-.4a1.1,1.1,0,0,0-.7-1.3l-.3-.7-.6-.5.6-.9h-1l.4-.7h-.9l-.9.9v.9a.4.4,0,0,1,.4.7Zm6.4-19.3a44.7,44.7,0,1,0,44.6,44.7,44.7,44.7,0,0,0-44.6-44.7Zm24.6,26.1a1.8,1.8,0,0,0,.9-.6,2.1,2.1,0,0,0,1-.4l.5.2h.6v.8l.2.3h-.6l-.6.3.2.2h-.5c.8.6.6,1.2,1.7,1.5s.4.8.6,1.1l-.2.5.4.8.3.2a10.9,10.9,0,0,1,.5,1.7c-2.4.5-1.4-.2-3.2-.6l-.2-.7c.2-.5.1-1.1.3-1.5s-1.8-1.5-1.8-2.6l-.6-.5a1.6,1.6,0,0,0,.5-.8Zm-10.4,11.2c-.9,0-1.5-.8-2.5-.4s-.2-.4-1.2-.5a1.2,1.2,0,0,0-2.2.2c.3.3.1.7,0,1l-.5.2c-.8-.5-2.3-.6-2.4-1.6l-2.5-.6-.3-.5h-.4l-.2-.3.7-.5c-.1-.5-.5-1.3,0-1.7a3.2,3.2,0,0,1-.9-.3,1.8,1.8,0,0,1-2,.2l-.6.4c-1.7-.6-3.5.3-4.8,1.3l-.5-.3c-.6.1-1.1.3-1.5-.3H316a6.4,6.4,0,0,0-.8,1.4c-1.1.5-2.5,1.4-2,2.9a2.9,2.9,0,0,1-2.1,1.5l-.6,1c-.7.2-1.5,2.7-1.9,3.4s1.2,3.3-.8,5.7l.3.6c-.2,1.7,1.5,2.3,2.2,3.4s1.9,3.8,3.9,3.9.6-1.1,3.8-.4c3.8-1.9,2.7-2,5.5.4.5,0,.9-.3,1.4-.3a1.8,1.8,0,0,1,.8,1.1c-1.1,6.2,2.4,5.1,2.4,9l-.2.3c0,1,1.1,1.3.2,2.6s-1.3,2.6-1.1,3.2l3.2,9.3a15.4,15.4,0,0,0,.8,1.9,41.7,41.7,0,0,1-7.1.7,41,41,0,0,1-26-9.4,17.9,17.9,0,0,0,.6-4.9c.8-1.3,1.6-2.5,2.5-3.7s0-2.4-.5-2.6-3.8-2.3-5.8-2a2.9,2.9,0,0,0-2.6-1.4c-.6,1-1.7,1.5-2.2.1s1.3-1.3.4-2.4-1.7-2.6-3.8-2.8c-.4,0-1.4-1.2-2-1.7a41.2,41.2,0,0,1,2.4-26.7l4.3-1.7.6.2-1.8.9v.4c.6.1,5.7-2.2,3.9-2.2s-3.2,1.4-1.6-1.4c-1.5-.7-1.5-.1-2.9,0,1.3-2,9.2-.6,9.2-3.4s-2.2-1.1-2.1-2.5a5.6,5.6,0,0,0-1-2.6,42.2,42.2,0,0,1,10.1-7.2l.8.6c0,1.2-3.1,1.6-2.3,2.6-.9,1.9,1.1,4.4,3.1,4.4l.5-.4a6.7,6.7,0,0,1,5.1-3.8c1-.2,1.5-1.1,2.4-1.3s2.9-.3,4.1-.9.4-.2.3-.4-.4-.3-.6-.5,1.1,1.6,1.9.2a.9.9,0,0,0-.5-1.1c-.1,0-.6,0-.3-.2s.7.6,1,.2l1.4-1.8c-.1-.5.1-1.1.7-1s-.8-.4-.4-.8h1a40.2,40.2,0,0,1,21.6,6.3l-.9.4h-1.2l.6-.2a5.9,5.9,0,0,0-1.9-.5l.6.5v.5l.5.5v.2l-.9-.3-1.2.7.4.6-1.6-.4-.2.2.3.3c.1,0,.8.2.5.4a3.1,3.1,0,0,1-1.8-.7,1.7,1.7,0,0,0-1.3-1.4c1.3.4,3,1.2,4.2.2l-.4-.7-4.4-1.3a1.2,1.2,0,0,0-.8.1h-.2c.9-.9-2.4-.8-2.8-.8a17.5,17.5,0,0,0-5.3,1.8h.7v.5c-.4.6-.6.1-1.2,1.4s-1.3,1.3-1.8,1-2.5,1.2-2,2.2,0,.8.3.8c-.4,1.8,2.3.4,2.8-.2a23.9,23.9,0,0,0,1.2,2.2.7.7,0,0,0,.3.9l.6-.2v-.3l1.2-.2.2-.8-.2-.7a1.8,1.8,0,0,0,1.2-1.2l-.6-.3-.3-.9c.6-1.1,1.2-1,1.9-1.8V489l.3-.5.9-.2c2.3-.5-1,1.8-1,1.8s.2.7.2,1.1,3.3.7,4.3,1.1l-1.2.4c-1.5-.3-1.4.1-2.7.5l.2.4h1.1c.2,1.3-.4,1.1-1.1.3s-.7,1.1-.6,1.7a8,8,0,0,1-1.2.8c.1-.8-2.1.1-2.4.2l-.6-.3-1.2.4-.7-.7.2-.8.4-.4-.4-.2.2-.5-.4-.2-.2.4c-1.3.2-.9,1.6-.4,2.4-2.3.5-2.4.9-4,2.1a2.4,2.4,0,0,1-1.6,1.2l-.5-.3H319v.7a2.4,2.4,0,0,1-1.2-.1c-.4.1-.8.1-.7.6a2.4,2.4,0,0,1,2,1.3c1.3,2.7-2.4,2.1-3.5,2.1l-.3-.2-1.2.5c.7.1,0,2.8-.4,3.1s.3,1.3.3,1.5c1.9-.6,1.5.8,2.1.8s2.1-.2,3.1-1.3a1.1,1.1,0,0,1,.5-.9v-.7c.9-1,.7-1.1,2-1.7.4-2.3.9-.3,2.4-1.1s3.4,2.3,5.4,2.6v.9l-.3.4.5.2c.2-.3.2-.8.6-.9l-.4-.5.4-.5c.2.2.5.2.6.5l.2-.3c-.2-.5-1.1-.8-1.6-1v-.3a1.9,1.9,0,0,1-1.3-.7c.1-.5-.6-.7-.9-1v-.8c.3-.4.8-.1,1,.3s.4.7,1.1,1,1.6.6,2.1,1.4v1c.4.2.9.7.8,1.2a.5.5,0,0,1,.2.7h0l.4.2.2.6h.9l-.3-.7.5.2h0l-.2-.4h.1l.4.2v-.7l-.4-.3-.2-.4h-.3l-.2-.5a1,1,0,0,1,.9.2l.2-.5.4.2h.3l.3.3a2.5,2.5,0,0,1,1.8-.6l.2-.2c-1.5-.3-.7-2.6,0-2.9s1-1.5,1.6-.6a12.7,12.7,0,0,0,3.8-1.1l.3.2c-.3.2-.7,1.5-2.2,1.4s-.1-1-1.8,0a.5.5,0,0,1,.7.6h.3c1.2-.7,4.9.3,4.9,1.9s-1.6.6-2.2.6-1.5-.9-2.8-.8-1,.9-2.3.7c.4.1.2.4.1.4s-1.3.1-1.9.4-.7.3-.4.5l.5.6c-.7-.1.7,1.2.9,1.4s.7.5,1.2.5l.6-.5,1.7.6c.5,0,.2-.9,1.2-.4l.3-.3.2.2-.2.3c.3,3.3.1,3.5-2.8,3.5-.5,0-.8.6-1.3.6ZM352,550.4l.4-.4v-.5a2.6,2.6,0,0,0-.5-2.9l-.8.8c-1.2,2.2-.7,1.1-2.4,2.3s-.6.5-.2,2.4-.5,1.2-.1,1.3a37.7,37.7,0,0,1-8,4.8,2.8,2.8,0,0,0,.4-1.2c.1-.8,3-1,1.6-3a1.7,1.7,0,0,0-.3-1.2c.5-2,3.7-1.6,4.2-4.7s-1.2-3.9-.9-5.6c-1.3-2.9,7.1-8.6,7.9-13.4.3-2.3-4.4,2-5.4-1v-.4a11.8,11.8,0,0,1-4.2-4.9,11.1,11.1,0,0,0-.2-1.7c-.7-2.3-2.3-4.3-3.4-6.4.3-.4,1,1.2,1.1,1.4h.4v-.9l3.4,6.5c.6,1.2,1.8,2,2.4,3.3s.1,1.7.5,2.4l.8.5,4.8-2.1c.4-.1.3-.5.5-.8s1.1-.2,1.5-.5.2-.6,1-.8l.8-.8a1.4,1.4,0,0,1,0-.9c.4,0,1.1-.9,1.1-.9s-2-1.6-2.7-3.3a6.8,6.8,0,0,1-2.1,1.7c-.9-.3-4.2-4.3-2.7-5.1l.7.2c1,1.3,2.4,3.7,4.3,2.3h.2v.4l.7.7a25.3,25.3,0,0,0,5.5.1c.4,0,.6.8.8,1a4.9,4.9,0,0,1,1,.8c0,.5.1.9.1,1.4A40.5,40.5,0,0,1,352,550.5Zm-24.1-42h0Zm-1.5-13,.4.4h-.1c-.4.7.6-.3.6-.4l-.5-.5-.4.4Zm-11.8,3.1,1.9-.7.3-.9v-.4l.5-.2-1-.6a5.4,5.4,0,0,1-1.6,1l.2.5-.6.9.4.4Zm2.9-2.7.3.3.5-.2h0l.3.6-.3.5h-.4a2,2,0,0,1-.6,1.3h1.2c-.3.7-1.2.6-1.7,1h.2l.7-.3h.2c.5-.4,2.3-.4,3-.7l-.3-.3.6-.8-.4-.2h-.4a1.1,1.1,0,0,0-.7-1.3l-.3-.7-.6-.5.6-.9h-1l.4-.7h-.9l-.9.9v.9a.4.4,0,0,1,.4.7ZM45.4,338.3a14.9,14.9,0,0,1-29.8,0,12.1,12.1,0,0,1,.6-3.8h-.1a.4.4,0,0,0,.1-.3,4.2,4.2,0,0,0,.4-1h0a14.9,14.9,0,0,1,4.6-6.4,1.6,1.6,0,0,1,2.7,1.2,1.6,1.6,0,0,1-.7,1.3,12.7,12.7,0,0,0-3,3.9h0v.2c-.2.3-.3.7-.5,1a12.8,12.8,0,0,0-.7,3.9,11.6,11.6,0,0,0,23.2,0,12.8,12.8,0,0,0-.7-3.9,13.2,13.2,0,0,0-3.6-5.1,1.6,1.6,0,0,1-.7-1.3h0a1.7,1.7,0,0,1,2.7-1.3,15.2,15.2,0,0,1,4.6,6.5h0c.1.3.3.7.4,1.1v.2h-.1A12.1,12.1,0,0,1,45.4,338.3ZM32.7,323.5v8.6a2,2,0,0,1-2,2h-.4a2,2,0,0,1-2-2v-8.6a2,2,0,0,1,2-2h.4A2,2,0,0,1,32.7,323.5Zm19.5,39.4H8.7c-4.7,0-8.5-3.3-8.7-7.4V328.2a5.7,5.7,0,0,1,2.7-4.8l22.8-14.9,1.2-.6a10.3,10.3,0,0,1,7.7,0l1.4.7,22.3,14.6a6.1,6.1,0,0,1,2.9,5v27.2C60.8,359.6,57,362.9,52.2,362.9ZM30.6,312.1a5.8,5.8,0,0,0-1.9.4l-.4.2L5.4,327.5a1.3,1.3,0,0,0-.4.7v27.2c.1,1.3,1.7,2.5,3.7,2.5H52.2c2,0,3.7-1.2,3.8-2.6V328.2c0-.3-.4-.6-.6-.8L33,312.8l-.5-.3A6.5,6.5,0,0,0,30.6,312.1Z"/></g></g></svg>